Coordinates
version=1
nRows=12
nColumns=24
inDegrees=yes

Units are S.I. units (second, meters, Newtons, ...)
Angles are in degrees.

endheader
time	pelvis_tilt	pelvis_list	pelvis_rotation	pelvis_tx	pelvis_ty	pelvis_tz	hip_flexion_r	hip_adduction_r	hip_rotation_r	knee_angle_r	ankle_angle_r	subtalar_angle_r	mtp_angle_r	hip_flexion_l	hip_adduction_l	hip_rotation_l	knee_angle_l	ankle_angle_l	subtalar_angle_l	mtp_angle_l	lumbar_extension	lumbar_bending	lumbar_rotation
      0.84600000	      0.63017675	      4.38205561	     -2.38441070	     -0.47480793	      1.02329418	      0.32065747	      8.93139266	     -0.79452458	     -1.12862003	    -16.81060701	      7.70027596	     -7.86125329	      7.84380383	     14.96049800	      1.94264420	     -7.31643359	    -65.23094194	     -0.64719497	    -20.08664733	      2.38391935	     -4.28277666	     -4.59513101	      4.04621383
      0.85016667	      0.61803258	      4.46731599	     -2.59182039	     -0.46971617	      1.02392106	      0.32125241	      8.48857197	     -0.87343436	     -1.06880075	    -16.47821884	      7.78965086	     -7.66013754	      7.86398294	     15.44901638	      2.00958903	     -7.50258323	    -64.78912472	     -0.35886007	    -19.45198062	      2.42278518	     -4.26559809	     -4.68674286	      4.39288838
      0.85433333	      0.59439750	      4.55618226	     -2.79718950	     -0.46463639	      1.02449124	      0.32184361	      8.06007058	     -0.95774488	     -1.00738833	    -16.14664592	      7.87961821	     -7.46049231	      7.88560801	     15.94068175	      2.07567153	     -7.69053094	    -64.30395299	     -0.08226532	    -18.79628162	      2.47950807	     -4.24030767	     -4.78922063	      4.75006536
      0.85850000	      0.59328031	      4.63830547	     -3.00334134	     -0.45956555	      1.02505381	      0.32242737	      7.60500291	     -1.03780432	     -0.94888324	    -15.80895163	      7.96821046	     -7.25842510	      7.90955735	     16.39518643	      2.13435080	     -7.87303557	    -63.77339816	      0.18963781	    -18.12148500	      2.55715469	     -4.24165299	     -4.88424139	      5.11323904
      0.86266667	      0.58494443	      4.71948350	     -3.21100567	     -0.45451575	      1.02554444	      0.32299560	      7.16561325	     -1.11969038	     -0.89072915	    -15.48328856	      8.06197279	     -7.06479542	      7.93259705	     16.84820414	      2.18968904	     -8.05835998	    -63.20512735	      0.46382872	    -17.43028120	      2.64535813	     -4.23118762	     -4.96996959	      5.45103065
      0.86683333	      0.59101982	      4.78799268	     -3.41232534	     -0.44947199	      1.02601870	      0.32355327	      6.70446824	     -1.19028093	     -0.83142758	    -15.14649381	      8.14989680	     -6.87685025	      7.95730443	     17.27365481	      2.23103931	     -8.23445793	    -62.59557487	      0.72832425	    -16.73381876	      2.75539129	     -4.24323105	     -5.04872659	      5.80375953
      0.87100000	      0.59556383	      4.84914204	     -3.61112111	     -0.44443710	      1.02644055	      0.32409326	      6.24628667	     -1.25539120	     -0.77438780	    -14.81171211	      8.23559703	     -6.70007143	      7.98208850	     17.68948039	      2.26355091	     -8.40677068	    -61.95036095	      0.98958285	    -16.03484598	      2.88021359	     -4.25348538	     -5.11623197	      6.14114922
      0.87516667	      0.57472093	      4.90402369	     -3.80643605	     -0.43941291	      1.02677773	      0.32462335	      5.81874422	     -1.31285725	     -0.71050237	    -14.48266895	      8.31809050	     -6.53796460	      8.00680503	     18.12253813	      2.28622671	     -8.57601050	    -61.27005524	      1.24401498	    -15.33967976	      3.01989699	     -4.23510562	     -5.17310796	      6.47566145
      0.87933333	      0.55130016	      4.96144359	     -3.99760257	     -0.43438827	      1.02706668	      0.32513944	      5.39630321	     -1.37542433	     -0.64939506	    -14.15851148	      8.40320143	     -6.38087166	      8.03119006	     18.54423794	      2.31231091	     -8.74172831	    -60.54693961	      1.48363360	    -14.66131615	      3.17107639	     -4.21337441	     -5.23303143	      6.80017876
      0.88350000	      0.54450010	      5.00272164	     -4.18412626	     -0.42938981	      1.02732420	      0.32563572	      4.95504050	     -1.42368996	     -0.58958479	    -13.83249071	      8.48608102	     -6.23006919	      8.05664322	     18.93748389	      2.32376341	     -8.89597176	    -59.79273247	      1.71975377	    -13.99491469	      3.34421997	     -4.21688196	     -5.27539781	      7.12807954
      0.88766667	      0.51747421	      5.04929941	     -4.36765656	     -0.42438330	      1.02751615	      0.32611732	      4.54070257	     -1.47860783	     -0.53420750	    -13.51629640	      8.57398530	     -6.09002373	      8.07970148	     19.33687636	      2.34047322	     -9.05110779	    -58.99471628	      1.94025576	    -13.35213801	      3.51314365	     -4.19367569	     -5.32478923	      7.42853491
      0.89183333	      0.49580564	      5.08071462	     -4.54098757	     -0.41938963	      1.02766769	      0.32658046	      4.11669289	     -1.51897458	     -0.47851410	    -13.19544246	      8.65656822	     -5.95748199	      8.10102725	     19.71858365	      2.34335647	     -9.19234184	    -58.16614774	      2.14931757	    -12.73146649	      3.68489667	     -4.18103670	     -5.35666641	      7.72395021
